<svg id="Capa_1" data-name="Capa 1" xmlns="http://www.w3.org/2000/svg" viewBox="0 0 409.1 88.5"><defs><style>.cls-1{fill:#f4f4f4;}</style></defs><path class="cls-1" d="M276.06,233.73a7.62,7.62,0,0,0,2.8-1.6,6.6,6.6,0,0,0,1.7-2.4,7.31,7.31,0,0,0,.6-3,7,7,0,0,0-2.1-5.4c-1.4-1.3-3.6-2-6.5-2h-7.2v24.5h4.3v-9.6h2.5A9.49,9.49,0,0,0,276.06,233.73Zm-6.4-11.3h2.4a4.81,4.81,0,0,1,2.2.4,3.88,3.88,0,0,1,1.4,1,3.69,3.69,0,0,1,.7,1.4,8.75,8.75,0,0,1,.2,1.6,4.36,4.36,0,0,1-1,3,4,4,0,0,1-3.3,1.2h-2.8v-8.6Z" transform="translate(-51.86 -211.63)"/><path class="cls-1" d="M285.46,275.63a7.51,7.51,0,0,1,1.2,4.5v12.1h-4.1v-11.7a5.36,5.36,0,0,0-.5-2.4,2,2,0,0,0-1.8-.9,2.93,2.93,0,0,0-1.6.4,5.26,5.26,0,0,0-1.4,1.2,8.48,8.48,0,0,0-1,1.9,6.57,6.57,0,0,0-.4,2.5v8.9h-4.1V283a17.93,17.93,0,0,0-.3-3.6,20.76,20.76,0,0,0-.6-2.4,8.72,8.72,0,0,0-.9-1.7l3.3-1.3a8.65,8.65,0,0,1,.7,1,8.1,8.1,0,0,1,.6,1.3c.2.5.3,1,.5,1.7a5.58,5.58,0,0,1,2.7-3.1,8.2,8.2,0,0,1,3.7-1C283.36,274,284.66,274.53,285.46,275.63Z" transform="translate(-51.86 -211.63)"/><path class="cls-1" d="M306.16,276.63V278a33,33,0,0,1-.6,6.8,13.24,13.24,0,0,1-1.8,4.5,6.92,6.92,0,0,1-3.1,2.5,11.52,11.52,0,0,1-4.4.8c-1.9,0-3.3-.5-4.1-1.7a7.51,7.51,0,0,1-1.2-4.5v-12h4.1v11.9a6.18,6.18,0,0,0,.5,2.5,2,2,0,0,0,1.8.9,2.7,2.7,0,0,0,2.2-1,8.57,8.57,0,0,0,1.4-2.5,16.41,16.41,0,0,0,.7-3.6c.1-1.3.2-2.7.2-4.1a7.57,7.57,0,0,0-.1-1.5c0-.5-.1-.9-.1-1.3a3.44,3.44,0,0,1-.1-.9l-.1-.4h4.2l.1.3c0,.2.1.5.1.8C306.16,275.73,306.16,276.13,306.16,276.63Z" transform="translate(-51.86 -211.63)"/><path class="cls-1" d="M292.16,229.63a3.08,3.08,0,0,0-1.3.3,3.84,3.84,0,0,0-2,2.3,4.84,4.84,0,0,0-.3,1.8v9.9h-4.1v-9.1a17.93,17.93,0,0,0-.3-3.6,20.76,20.76,0,0,0-.6-2.4,8.72,8.72,0,0,0-.9-1.7l3.3-1.3a8.65,8.65,0,0,1,.7,1,6.66,6.66,0,0,1,.6,1.2c.2.5.3,1,.5,1.6a5.79,5.79,0,0,1,2.1-3,5.61,5.61,0,0,1,3.1-.9,7.77,7.77,0,0,1,1.6.2,3.13,3.13,0,0,1,.7.2l-1.2,4a1.09,1.09,0,0,0-.4-.2A3.34,3.34,0,0,0,292.16,229.63Z" transform="translate(-51.86 -211.63)"/><path class="cls-1" d="M310.86,238.43a15.18,15.18,0,0,0,.5-3.8,10.77,10.77,0,0,0-1.9-6.8q-1.95-2.4-6-2.4a8,8,0,0,0-3.6.7,8.6,8.6,0,0,0-2.6,2,7.71,7.71,0,0,0-1.5,3,15.18,15.18,0,0,0-.5,3.8,14.57,14.57,0,0,0,.5,3.8,8.7,8.7,0,0,0,1.4,2.9,5.77,5.77,0,0,0,2.5,1.8,9.51,9.51,0,0,0,3.5.6,8.27,8.27,0,0,0,3.6-.7,8.6,8.6,0,0,0,2.6-2A6.16,6.16,0,0,0,310.86,238.43Zm-4-1a11.7,11.7,0,0,1-.5,2,3,3,0,0,1-2.8,1.8,3.56,3.56,0,0,1-1.9-.5,3.33,3.33,0,0,1-1.2-1.4,6.46,6.46,0,0,1-.6-2.1,19.48,19.48,0,0,1-.2-2.5,17.72,17.72,0,0,1,.1-2.4,9.73,9.73,0,0,1,.5-2,3.45,3.45,0,0,1,1-1.3,2.86,2.86,0,0,1,1.7-.5,3.56,3.56,0,0,1,1.9.5,3.33,3.33,0,0,1,1.2,1.4,6.46,6.46,0,0,1,.6,2.1,19.48,19.48,0,0,1,.2,2.5A9.6,9.6,0,0,1,306.86,237.43Z" transform="translate(-51.86 -211.63)"/><polygon class="cls-1" points="56 1.3 57.4 3.1 55.8 22.1 35 21.3 25.9 21.3 25.6 36.3 34.4 36.3 49.4 35.9 50.8 37.8 49.3 56.7 32.6 56.3 25 56.3 25 58 26.1 85.2 0 85.2 1.3 60.6 0 1.3 56 1.3"/><path class="cls-1" d="M152.06,212.43l-37.9.5,1.3,59.3-1.3,24.6c12.1.8,22.7,1.2,31.6,1.2,14.3,0,25.4-4,33.1-12.1s11.5-19.5,11.5-34.5c0-12.6-3.3-22.3-9.9-29S164.46,212.43,152.06,212.43Zm8,61.4a10.49,10.49,0,0,1-9.3,4.9,93.52,93.52,0,0,1-11.3-1l-.3-8,.9-36.4c3.2-.3,6.4-.5,9.7-.5s6,.8,7.9,2.4,3.3,4.2,4.2,7.8,1.3,8.6,1.3,14.9C163.26,265.23,162.16,270.63,160.06,273.83Z" transform="translate(-51.86 -211.63)"/><path class="cls-1" d="M225.86,237.23c-2.3,3.1-3.5,8.2-3.5,15.4,0,8.4,1.3,14.5,4,18.3s6.9,5.8,12.6,5.8a49.26,49.26,0,0,0,8.1-.7,36.84,36.84,0,0,0,7.8-2l2.1,1.3-2.1,20.5a61.14,61.14,0,0,1-18,2.5c-13.9,0-24.4-3.6-31.4-10.9s-10.6-17.8-10.6-31.8,3.8-24.8,11.3-32.5,18.3-11.5,32.1-11.5a63.38,63.38,0,0,1,21,3.5l-4.4,20.6-1.7,1a32.47,32.47,0,0,0-7.8-2.9,35.67,35.67,0,0,0-8.2-1.1C232.06,232.63,228.26,234.23,225.86,237.23Z" transform="translate(-51.86 -211.63)"/><rect class="cls-1" x="210.6" y="56.2" width="4.3" height="24.5"/><path class="cls-1" d="M461,280.23v12.1h-4.1v-11.7a5.36,5.36,0,0,0-.5-2.4,2,2,0,0,0-1.8-.9,2.93,2.93,0,0,0-1.6.4,5.26,5.26,0,0,0-1.4,1.2,8.48,8.48,0,0,0-1,1.9,6.9,6.9,0,0,0-.4,2.5v8.9h-4.1v-9.1a17.93,17.93,0,0,0-.3-3.6,20.76,20.76,0,0,0-.6-2.4,8.72,8.72,0,0,0-.9-1.7l3.3-1.3a8.65,8.65,0,0,1,.7,1,8.1,8.1,0,0,1,.6,1.3,6.87,6.87,0,0,1,.5,1.7,5.58,5.58,0,0,1,2.7-3.1,8.2,8.2,0,0,1,3.7-1,4.72,4.72,0,0,1,4,1.7A7.51,7.51,0,0,1,461,280.23Z" transform="translate(-51.86 -211.63)"/><path class="cls-1" d="M406.76,279.83a9.87,9.87,0,0,0-.4,3.3,10.92,10.92,0,0,0,.4,3.4,5.58,5.58,0,0,0,1,1.9,2.22,2.22,0,0,0,1.3.9,6.88,6.88,0,0,0,1.3.2,4.48,4.48,0,0,0,1.1-.1c.4-.1.7-.1,1-.2a2.92,2.92,0,0,1,.9-.2,1.07,1.07,0,0,0,.6-.2l1,2.6c-.1,0-.2.1-.5.2a6.89,6.89,0,0,0-1,.4,15.69,15.69,0,0,1-1.6.3,12.31,12.31,0,0,1-2,.2,9.69,9.69,0,0,1-3.6-.6,5.46,5.46,0,0,1-2.4-1.8,8.18,8.18,0,0,1-1.4-2.8,13.7,13.7,0,0,1-.4-3.6,13.3,13.3,0,0,1,.6-4.2,8.28,8.28,0,0,1,4.4-5,8.84,8.84,0,0,1,3.3-.7,5.43,5.43,0,0,1,2.9.7,5.67,5.67,0,0,1,2,1.8l-2.3,2.2a5,5,0,0,0-1.1-1,2.41,2.41,0,0,0-1.5-.4,2.54,2.54,0,0,0-1.2.2,3.07,3.07,0,0,0-1.3.8A2.35,2.35,0,0,0,406.76,279.83Z" transform="translate(-51.86 -211.63)"/><path class="cls-1" d="M438.06,264.13l2.8,2.6a27.25,27.25,0,0,1-2.3,2.5l-2.3,2c-.8.6-1.7,1.2-2.5,1.7L432,271Z" transform="translate(-51.86 -211.63)"/><path class="cls-1" d="M316.06,242.43a7.51,7.51,0,0,1-1.2-4.5v-12H319v11.9a5.36,5.36,0,0,0,.5,2.4,2,2,0,0,0,1.8.9,3.07,3.07,0,0,0,1.5-.4,4.86,4.86,0,0,0,1.4-1.1,4.78,4.78,0,0,0,1-1.7,5.22,5.22,0,0,0,.4-2.1V226h4.2l-.2,10.7a12.31,12.31,0,0,0,.2,2,11.63,11.63,0,0,0,.4,1.8c.1.6.3,1.2.4,1.8a12.31,12.31,0,0,1,.2,2c0,2.5-.6,4.5-1.9,5.7a7.62,7.62,0,0,1-5.3,1.9,18,18,0,0,1-2.2-.2,11.7,11.7,0,0,1-2-.5c-.6-.2-1.1-.3-1.6-.5s-.7-.3-.9-.4l1-3.1a9.74,9.74,0,0,1,1.1.5c.4.2.9.3,1.3.5s.9.3,1.4.4a6.75,6.75,0,0,0,1.4.2,3.31,3.31,0,0,0,2.9-1.2,5,5,0,0,0,.9-3.1,9.58,9.58,0,0,0-.7-3.6,5.87,5.87,0,0,1-2.7,2.7,8.53,8.53,0,0,1-3.5.8A5.89,5.89,0,0,1,316.06,242.43Z" transform="translate(-51.86 -211.63)"/><path class="cls-1" d="M335.16,241.73a5.46,5.46,0,0,0,2.4,1.8,9.69,9.69,0,0,0,3.6.6,10.9,10.9,0,0,0,2.6-.3c.8-.2,1.5-.4,2.2-.6a11.92,11.92,0,0,0,2-.8l-1.1-2.6a12.66,12.66,0,0,1-1.8.6,8.47,8.47,0,0,1-1.7.4,11.14,11.14,0,0,1-1.7.2,4.84,4.84,0,0,1-1.8-.3,2.73,2.73,0,0,1-1.2-.9,5.39,5.39,0,0,1-.7-1.3,4.15,4.15,0,0,1-.3-1.6,14.42,14.42,0,0,0,4.3-.6,10,10,0,0,0,3.3-1.4,7,7,0,0,0,2.1-2.1,4.51,4.51,0,0,0,.7-2.5,6.45,6.45,0,0,0-.3-2,3.55,3.55,0,0,0-1.1-1.6,6.79,6.79,0,0,0-1.9-1.1,7.89,7.89,0,0,0-2.8-.4,9.34,9.34,0,0,0-3.4.6,6.66,6.66,0,0,0-2.8,1.9,7.93,7.93,0,0,0-1.8,3.1,14.71,14.71,0,0,0-.3,7.9A9.33,9.33,0,0,0,335.16,241.73Zm2.7-9.5a6.79,6.79,0,0,1,.7-2,3.74,3.74,0,0,1,1.3-1.5,3.17,3.17,0,0,1,2-.6,2.11,2.11,0,0,1,1.6.6,2.35,2.35,0,0,1,.6,1.7,3.08,3.08,0,0,1-.3,1.3,4,4,0,0,1-1.1,1.2,5.28,5.28,0,0,1-2,.9,8.47,8.47,0,0,1-2.9.4A7.17,7.17,0,0,1,337.86,232.23Z" transform="translate(-51.86 -211.63)"/><path class="cls-1" d="M352,288.83l.7,2.7-.3.1a4.05,4.05,0,0,1-1,.3q-.6.15-1.5.3a11.48,11.48,0,0,1-1.9.1,11.08,11.08,0,0,1-1.9-.2,4.13,4.13,0,0,1-1.5-.7,4,4,0,0,1-1-1.2,5,5,0,0,1-.3-1.9v-11.2H340v-2.9h3.3l.7-4.2,3.4-.8v5h4.4l-.5,2.9h-3.9v10.7a1.36,1.36,0,0,0,.5,1.2,2,2,0,0,0,1.1.3,3.4,3.4,0,0,0,1-.1,2.92,2.92,0,0,0,.9-.2A3.09,3.09,0,0,0,352,288.83Z" transform="translate(-51.86 -211.63)"/><path class="cls-1" d="M367.56,228.83h-3.3v-2.9h3.3l.7-4.2,3.4-.8v5h4.4l-.5,2.9h-3.9v10.7a1.36,1.36,0,0,0,.5,1.2,2,2,0,0,0,1.1.3,3.4,3.4,0,0,0,1-.1,2.92,2.92,0,0,0,.9-.2l.9-.3.7,2.7-.3.1a4.05,4.05,0,0,1-1,.3q-.6.15-1.5.3a11.48,11.48,0,0,1-1.9.1,11.08,11.08,0,0,1-1.9-.2,3.48,3.48,0,0,1-2.5-2,5,5,0,0,1-.3-1.9v-11Z" transform="translate(-51.86 -211.63)"/><path class="cls-1" d="M389.26,243.53a8.6,8.6,0,0,0,2.6-2,8.47,8.47,0,0,0,1.5-3,15.18,15.18,0,0,0,.5-3.8,10.77,10.77,0,0,0-1.9-6.8q-1.95-2.4-6-2.4a8,8,0,0,0-3.6.7,8.6,8.6,0,0,0-2.6,2,7.71,7.71,0,0,0-1.5,3,15.18,15.18,0,0,0-.5,3.8,14.57,14.57,0,0,0,.5,3.8,8.7,8.7,0,0,0,1.4,2.9,5.77,5.77,0,0,0,2.5,1.8,9.69,9.69,0,0,0,3.6.6A6.66,6.66,0,0,0,389.26,243.53Zm-6.3-4.2a6.46,6.46,0,0,1-.6-2.1,19.48,19.48,0,0,1-.2-2.5,9,9,0,0,1,.2-2.4,9.73,9.73,0,0,1,.5-2,3,3,0,0,1,2.8-1.8,3.56,3.56,0,0,1,1.9.5,3.33,3.33,0,0,1,1.2,1.4,6.46,6.46,0,0,1,.6,2.1,19.48,19.48,0,0,1,.2,2.5,17.72,17.72,0,0,1-.1,2.4,11.7,11.7,0,0,1-.5,2,3.45,3.45,0,0,1-1,1.3,2.86,2.86,0,0,1-1.7.5,3.56,3.56,0,0,1-1.9-.5A3.15,3.15,0,0,1,383,239.33Z" transform="translate(-51.86 -211.63)"/><path class="cls-1" d="M338.16,285.23a6,6,0,0,1,.3,2,4.77,4.77,0,0,1-.4,2,5.23,5.23,0,0,1-1.2,1.7,5.61,5.61,0,0,1-2,1.2,7.63,7.63,0,0,1-2.7.5,8.52,8.52,0,0,1-2.3-.3q-1.2-.3-2.1-.6a11.64,11.64,0,0,1-1.5-.6l-.5-.3,1.3-3,.5.3a6.66,6.66,0,0,0,1.2.6c.5.2,1,.4,1.6.6a4.43,4.43,0,0,0,1.5.3,3.31,3.31,0,0,0,1.9-.5,1.61,1.61,0,0,0,.6-1.3,2.34,2.34,0,0,0-.7-1.7,6.29,6.29,0,0,0-2-1.3,9.8,9.8,0,0,1-4-2.4,5,5,0,0,1-1.2-3.5,4.14,4.14,0,0,1,.5-1.9,4,4,0,0,1,1.3-1.6,5.93,5.93,0,0,1,1.9-1.1,6.37,6.37,0,0,1,2.4-.4,14.92,14.92,0,0,1,2.1.2,7.76,7.76,0,0,1,1.8.5c.6.2,1.2.5,1.7.7l-1.2,2.8c-.5-.2-1-.4-1.4-.6a6.47,6.47,0,0,0-1.3-.4,7.72,7.72,0,0,0-1.5-.2,2.12,2.12,0,0,0-1.4.4,1.43,1.43,0,0,0-.6,1.2c0,1.4,1,2.4,3,3.2a19.47,19.47,0,0,1,2,.9,5.83,5.83,0,0,1,1.5,1.1A3.77,3.77,0,0,1,338.16,285.23Z" transform="translate(-51.86 -211.63)"/><path class="cls-1" d="M398.36,287.23a18.63,18.63,0,0,1-.3-3.6v-8.5c-.1,0-.3-.1-.8-.2s-1-.2-1.7-.3l-2.2-.3a17.85,17.85,0,0,0-2.3-.2,8.12,8.12,0,0,0-3.5.7,6.83,6.83,0,0,0-2.7,2,8.88,8.88,0,0,0-1.8,3,11.64,11.64,0,0,0-.6,3.8,14.48,14.48,0,0,0,.4,3.7,10.28,10.28,0,0,0,1.2,2.8,5.2,5.2,0,0,0,2.1,1.8,6.68,6.68,0,0,0,3,.6,5.36,5.36,0,0,0,5.7-4.4,7.81,7.81,0,0,0,.4,1.9c.2.5.4,1,.6,1.4a10.63,10.63,0,0,0,.9,1.1l3.2-1.3a8.72,8.72,0,0,1-.9-1.7A10.49,10.49,0,0,1,398.36,287.23Zm-4.3-4.8a10.9,10.9,0,0,1-.3,2.6,7.89,7.89,0,0,1-.9,2.3,5.34,5.34,0,0,1-1.3,1.6,2.72,2.72,0,0,1-1.7.6,2.54,2.54,0,0,1-1.6-.5,2.84,2.84,0,0,1-.9-1.4,11.21,11.21,0,0,1-.4-2.1,19.27,19.27,0,0,1-.1-2.4,18.09,18.09,0,0,1,.2-2.5,6,6,0,0,1,.8-2,3.48,3.48,0,0,1,1.4-1.3,4.9,4.9,0,0,1,2.3-.5,3.18,3.18,0,0,1,1.3.2,8.11,8.11,0,0,1,1.1.3l.1,5.1Z" transform="translate(-51.86 -211.63)"/><path class="cls-1" d="M417.86,270.53a2.52,2.52,0,0,1-.6-1.7,2.61,2.61,0,0,1,.6-1.8,2.35,2.35,0,0,1,1.9-.7,2.14,2.14,0,0,1,1.8.7,2.61,2.61,0,0,1,.6,1.8,2.79,2.79,0,0,1-.6,1.8,2.23,2.23,0,0,1-1.9.7A2.54,2.54,0,0,1,417.86,270.53Z" transform="translate(-51.86 -211.63)"/><path class="cls-1" d="M423.66,289.33l.4,2.6a4.88,4.88,0,0,1-.7.3c-.2.1-.5.1-.8.2s-.7.1-1.1.1a3.69,3.69,0,0,1-2.9-1.1,4.1,4.1,0,0,1-1-2.9v-14h4.1v13.7a1.61,1.61,0,0,0,.3,1.1,1,1,0,0,0,.8.3h.6C423.46,289.33,423.56,289.33,423.66,289.33Z" transform="translate(-51.86 -211.63)"/><path class="cls-1" d="M361.16,289.33l.4,2.6a4.88,4.88,0,0,1-.7.3c-.2.1-.5.1-.8.2s-.7.1-1.1.1a3.69,3.69,0,0,1-2.9-1.1,4.1,4.1,0,0,1-1-2.9v-14h4.1v13.7a1.61,1.61,0,0,0,.3,1.1,1,1,0,0,0,.8.3h.6C360.86,289.33,361,289.33,361.16,289.33Z" transform="translate(-51.86 -211.63)"/><path class="cls-1" d="M363.36,243c-.1,0-.2.1-.5.2a6.89,6.89,0,0,0-1,.4c-.4.1-1,.2-1.6.3a12.31,12.31,0,0,1-2,.2,9.69,9.69,0,0,1-3.6-.6,5.46,5.46,0,0,1-2.4-1.8,8.18,8.18,0,0,1-1.4-2.8,13.61,13.61,0,0,1-.5-3.6,13.3,13.3,0,0,1,.6-4.2,7.93,7.93,0,0,1,1.8-3.1,7,7,0,0,1,2.6-1.9,8.66,8.66,0,0,1,3.2-.6,6.53,6.53,0,0,1,2.9.6,5.67,5.67,0,0,1,2,1.8l-2.3,2.2a5,5,0,0,0-1.1-1,2.41,2.41,0,0,0-1.5-.4,2.54,2.54,0,0,0-1.2.2,3.07,3.07,0,0,0-1.3.8,3.74,3.74,0,0,0-.9,1.9,9.87,9.87,0,0,0-.4,3.3,10.92,10.92,0,0,0,.4,3.4,5.58,5.58,0,0,0,1,1.9,2.22,2.22,0,0,0,1.3.9,6.88,6.88,0,0,0,1.3.2,3.4,3.4,0,0,0,1-.1c.3-.1.7-.1,1-.2a2.92,2.92,0,0,1,.9-.2,4.17,4.17,0,0,0,.6-.2Z" transform="translate(-51.86 -211.63)"/><path class="cls-1" d="M379.36,288.73c-.1-.6-.3-1.2-.4-1.8a12.75,12.75,0,0,1-.1-2l.2-9.9q-.6-.15-1.5-.3a11.63,11.63,0,0,1-1.8-.4l-1.9-.3a12.75,12.75,0,0,0-1.9-.1,8.12,8.12,0,0,0-3.5.7,6.83,6.83,0,0,0-2.7,2,8.88,8.88,0,0,0-1.8,3,11.64,11.64,0,0,0-.6,3.8,14.48,14.48,0,0,0,.4,3.7,10.28,10.28,0,0,0,1.2,2.8,5.2,5.2,0,0,0,2.1,1.8,6.53,6.53,0,0,0,2.9.6,6.05,6.05,0,0,0,3.5-.9,5.21,5.21,0,0,0,1.9-2.8,10.36,10.36,0,0,1,.8,3.8,5,5,0,0,1-.9,3.1,3.43,3.43,0,0,1-2.9,1.2,6.6,6.6,0,0,1-1.4-.1,7.37,7.37,0,0,1-1.4-.4c-.5-.1-.9-.3-1.3-.4s-.8-.3-1.2-.5l-1,3.2a4.13,4.13,0,0,0,.9.4,15.6,15.6,0,0,0,1.6.5c.6.2,1.3.3,2,.5a15,15,0,0,0,2.2.2,7.19,7.19,0,0,0,5.3-1.9c1.3-1.3,1.9-3.2,1.9-5.7a12.31,12.31,0,0,0-.2-2A11.63,11.63,0,0,0,379.36,288.73Zm-4.5-6a10.07,10.07,0,0,1-.3,2.5,8.49,8.49,0,0,1-.9,2.2,4.86,4.86,0,0,1-1.3,1.5,2.45,2.45,0,0,1-1.6.6,2.07,2.07,0,0,1-1.5-.5,2.84,2.84,0,0,1-.9-1.4,11.21,11.21,0,0,1-.4-2.1c0-.8-.1-1.6-.1-2.4a18.09,18.09,0,0,1,.2-2.5,4.45,4.45,0,0,1,.8-2,3.48,3.48,0,0,1,1.4-1.3,4.9,4.9,0,0,1,2.3-.5,3.18,3.18,0,0,1,1.3.2,8.11,8.11,0,0,1,1.1.3v5.4Z" transform="translate(-51.86 -211.63)"/><path class="cls-1" d="M321.06,283.53a7,7,0,0,0,2.1-2.1,4.51,4.51,0,0,0,.7-2.5,6.45,6.45,0,0,0-.3-2,3.55,3.55,0,0,0-1.1-1.6,5,5,0,0,0-1.9-1.1,7.89,7.89,0,0,0-2.8-.4,9.34,9.34,0,0,0-3.4.6,7.74,7.74,0,0,0-2.8,1.9,7.93,7.93,0,0,0-1.8,3.1,13.33,13.33,0,0,0-.7,4.3,13.7,13.7,0,0,0,.4,3.6,8.18,8.18,0,0,0,1.4,2.8,5.46,5.46,0,0,0,2.4,1.8,9.69,9.69,0,0,0,3.6.6,10.9,10.9,0,0,0,2.6-.3c.8-.2,1.5-.4,2.2-.6a11.92,11.92,0,0,0,2-.8l-1.1-2.6a13.36,13.36,0,0,1-1.8.7,8.47,8.47,0,0,1-1.7.4,11.14,11.14,0,0,1-1.7.2,4.84,4.84,0,0,1-1.8-.3,2.73,2.73,0,0,1-1.2-.9,5.39,5.39,0,0,1-.7-1.3,4.15,4.15,0,0,1-.3-1.6,14.42,14.42,0,0,0,4.3-.6A9.66,9.66,0,0,0,321.06,283.53Zm-7.7-.7a15,15,0,0,1,.2-2.2,6.79,6.79,0,0,1,.7-2,3,3,0,0,1,1.3-1.4,4.27,4.27,0,0,1,2-.6,2.11,2.11,0,0,1,1.6.6,2.35,2.35,0,0,1,.6,1.7,3.08,3.08,0,0,1-.3,1.3,4,4,0,0,1-1.1,1.2,5.28,5.28,0,0,1-2,.9A8.53,8.53,0,0,1,313.36,282.83Z" transform="translate(-51.86 -211.63)"/><path class="cls-1" d="M418.26,241.63c.2.5.4,1,.6,1.4a2.76,2.76,0,0,0,.6.8l.3.3,3.2-1.3c0-.1-.1-.2-.3-.5a5.35,5.35,0,0,1-.6-1.3c-.2-.6-.4-1.4-.6-2.3a18.63,18.63,0,0,1-.3-3.6v-16.8l-4.1-.7v8.2c-.5-.1-1-.1-1.5-.2s-1-.1-1.4-.1a8.12,8.12,0,0,0-3.5.7,7.94,7.94,0,0,0-2.7,2,8.88,8.88,0,0,0-1.8,3,11.64,11.64,0,0,0-.6,3.8,14.48,14.48,0,0,0,.4,3.7,10.28,10.28,0,0,0,1.2,2.8,6,6,0,0,0,2.1,1.8,6.53,6.53,0,0,0,2.9.6,6,6,0,0,0,3.7-1.1,6.65,6.65,0,0,0,2-3.3A9.81,9.81,0,0,0,418.26,241.63Zm-1.2-7.5a10.9,10.9,0,0,1-.3,2.6,9.17,9.17,0,0,1-.9,2.3,5.34,5.34,0,0,1-1.3,1.6,2.72,2.72,0,0,1-1.7.6,2.54,2.54,0,0,1-1.6-.5,3.39,3.39,0,0,1-.9-1.4,11.8,11.8,0,0,1-.4-2,19.27,19.27,0,0,1-.1-2.4,18.09,18.09,0,0,1,.2-2.5,4.45,4.45,0,0,1,.8-2,4.36,4.36,0,0,1,1.4-1.3,4.9,4.9,0,0,1,2.3-.5,3.18,3.18,0,0,1,1.3.2,8.11,8.11,0,0,1,1.1.3l.1,5Z" transform="translate(-51.86 -211.63)"/><path class="cls-1" d="M355.26,270.53a2.52,2.52,0,0,1-.6-1.7,2.61,2.61,0,0,1,.6-1.8,2.35,2.35,0,0,1,1.9-.7,2.14,2.14,0,0,1,1.8.7,2.61,2.61,0,0,1,.6,1.8,2.79,2.79,0,0,1-.6,1.8,2.23,2.23,0,0,1-1.9.7A2.74,2.74,0,0,1,355.26,270.53Z" transform="translate(-51.86 -211.63)"/><path class="cls-1" d="M429.16,243.53a9.69,9.69,0,0,0,3.6.6,10.9,10.9,0,0,0,2.6-.3c.8-.2,1.5-.4,2.2-.6a11.92,11.92,0,0,0,2-.8l-1.1-2.6a12.66,12.66,0,0,1-1.8.6,8.47,8.47,0,0,1-1.7.4,11.14,11.14,0,0,1-1.7.2,4.84,4.84,0,0,1-1.8-.3,2.73,2.73,0,0,1-1.2-.9,5.39,5.39,0,0,1-.7-1.3,4.15,4.15,0,0,1-.3-1.6,14.42,14.42,0,0,0,4.3-.6,10,10,0,0,0,3.3-1.4,7,7,0,0,0,2.1-2.1,4.51,4.51,0,0,0,.7-2.5,6.45,6.45,0,0,0-.3-2,3.55,3.55,0,0,0-1.1-1.6,5,5,0,0,0-1.9-1.1,7.89,7.89,0,0,0-2.8-.4,9.34,9.34,0,0,0-3.4.6,6.66,6.66,0,0,0-2.8,1.9,7.93,7.93,0,0,0-1.8,3.1,11.41,11.41,0,0,0-.7,4.3,19.82,19.82,0,0,0,.4,3.6,8.18,8.18,0,0,0,1.4,2.8A7.89,7.89,0,0,0,429.16,243.53Zm.3-11.3a6.79,6.79,0,0,1,.7-2,3.74,3.74,0,0,1,1.3-1.5,3.17,3.17,0,0,1,2-.6,2.11,2.11,0,0,1,1.6.6,2.35,2.35,0,0,1,.6,1.7,2.2,2.2,0,0,1-.4,1.3,4,4,0,0,1-1.1,1.2,5.28,5.28,0,0,1-2,.9,8.47,8.47,0,0,1-2.9.4A19.09,19.09,0,0,1,429.46,232.23Z" transform="translate(-51.86 -211.63)"/><path class="cls-1" d="M434.16,273.83a9.61,9.61,0,0,0-3.6.7,8.6,8.6,0,0,0-2.6,2,8.47,8.47,0,0,0-1.5,3,15.18,15.18,0,0,0-.5,3.8,14.57,14.57,0,0,0,.5,3.8,8.7,8.7,0,0,0,1.4,2.9,6.42,6.42,0,0,0,2.5,1.8,10.3,10.3,0,0,0,7.2-.1,8.6,8.6,0,0,0,2.6-2,8.47,8.47,0,0,0,1.5-3,15.18,15.18,0,0,0,.5-3.8,10.77,10.77,0,0,0-1.9-6.8C439,274.63,437,273.83,434.16,273.83Zm3.3,12a9.73,9.73,0,0,1-.5,2,3.45,3.45,0,0,1-1,1.3,3.1,3.1,0,0,1-1.7.5,3.56,3.56,0,0,1-1.9-.5,3.33,3.33,0,0,1-1.2-1.4,6.46,6.46,0,0,1-.6-2.1,19.48,19.48,0,0,1-.2-2.5,17.72,17.72,0,0,1,.1-2.4,9.73,9.73,0,0,1,.5-2,3,3,0,0,1,2.8-1.8,3.56,3.56,0,0,1,1.9.5,3.33,3.33,0,0,1,1.2,1.4,6.46,6.46,0,0,1,.6,2.1,19.48,19.48,0,0,1,.2,2.5A16.59,16.59,0,0,1,437.46,285.83Z" transform="translate(-51.86 -211.63)"/></svg>